<svg viewBox="0 0 700 520" xmlns="http://www.w3.org/2000/svg" font-family="system-ui, sans-serif">
  <!-- App Section -->
  <text x="15" y="125" font-size="28" font-weight="bold" fill="#d1d5db">App</text>

  <!-- Curly brace for App -->
  <path d="M 110,40 Q 95,40 90,55 L 90,100 Q 90,120 75,120 Q 90,120 90,140 L 90,185 Q 95,200 110,200"
        fill="none" stroke="#6b7280" stroke-width="2"/>

  <!-- App Interface Layer -->
  <rect x="120" y="40" width="540" height="70" rx="10" fill="#4ade80" fill-opacity="0.15" stroke="#4ade80" stroke-width="2"/>
  <text x="140" y="70" font-size="16" font-weight="600" fill="#4ade80">Interface layer</text>
  <text x="140" y="90" font-size="14" fill="#9ca3af">on-screen display</text>
  <text x="340" y="80" font-size="14" fill="#d1d5db">Screen UI</text>
  <line x1="420" y1="75" x2="470" y2="75" stroke="#9ca3af" stroke-width="2" stroke-dasharray="6,3"/>
  <polygon points="470,75 462,70 462,80" fill="#9ca3af"/>
  <text x="480" y="80" font-size="14" font-weight="600" fill="#f87171">Wrong output</text>

  <!-- App Source Code Layer -->
  <rect x="120" y="130" width="540" height="70" rx="10" fill="#60a5fa" fill-opacity="0.15" stroke="#60a5fa" stroke-width="2"/>
  <text x="140" y="160" font-size="16" font-weight="600" fill="#60a5fa">Source code layer</text>
  <text x="140" y="180" font-size="14" fill="#9ca3af">binaries</text>
  <text x="480" y="170" font-size="14" font-weight="600" fill="#f87171">Code bugs</text>

  <!-- Arrow from Code bugs to Wrong output (drawn on top of boxes) -->
  <line x1="530" y1="155" x2="530" y2="95" stroke="#f97316" stroke-width="2"/>
  <polygon points="530,90 524,100 536,100" fill="#f97316"/>

  <!-- Life Section -->
  <text x="15" y="365" font-size="28" font-weight="bold" fill="#d1d5db">Life</text>

  <!-- Curly brace for Life -->
  <path d="M 110,280 Q 95,280 90,295 L 90,340 Q 90,360 75,360 Q 90,360 90,380 L 90,425 Q 95,440 110,440"
        fill="none" stroke="#6b7280" stroke-width="2"/>

  <!-- Life Interface Layer -->
  <rect x="120" y="280" width="540" height="70" rx="10" fill="#4ade80" fill-opacity="0.15" stroke="#4ade80" stroke-width="2"/>
  <text x="140" y="310" font-size="16" font-weight="600" fill="#4ade80">Interface layer</text>
  <text x="140" y="330" font-size="14" fill="#9ca3af">bodily senses</text>
  <text x="320" y="320" font-size="14" fill="#d1d5db">Physical senses</text>
  <line x1="430" y1="315" x2="480" y2="315" stroke="#9ca3af" stroke-width="2" stroke-dasharray="6,3"/>
  <polygon points="480,315 472,310 472,320" fill="#9ca3af"/>
  <text x="490" y="320" font-size="14" font-weight="600" fill="#f87171">Pain &amp; Suffering</text>

  <!-- Life Source Code Layer -->
  <rect x="120" y="370" width="540" height="70" rx="10" fill="#60a5fa" fill-opacity="0.15" stroke="#60a5fa" stroke-width="2"/>
  <text x="140" y="400" font-size="16" font-weight="600" fill="#60a5fa">Source code layer</text>
  <text x="140" y="420" font-size="14" fill="#9ca3af">energy (quantums)</text>
  <text x="480" y="410" font-size="14" font-weight="600" fill="#f87171">Soul bugs</text>

  <!-- Arrow from Soul bugs to Pain (drawn on top of boxes) -->
  <line x1="510" y1="395" x2="510" y2="335" stroke="#f97316" stroke-width="2"/>
  <polygon points="510,330 504,340 516,340" fill="#f97316"/>
</svg>
